# xmcd
#
# Track frame offsets: 
#        150
#        30257
#        63592
#        77067
#        107180
#        135290
#        167972
#        211120
#        249207
#        287680
#
# Disc length: 4298 seconds
#
# Revision: 0
# Processed by: cddbd v1.5.2PL0 Copyright (c) Steve Scherf et al.
# Submitted via: ExactAudioCopy v0.99pb3
#
DISCID=7e10c80a
DTITLE=Ben Sanders Band - Royal Caledonian Ball
DYEAR=1998
DGENRE=Folk
TTITLE0=Dashing White Sargeant
TTITLE1=Eightsome Reel
TTITLE2=Foursome Reel
TTITLE3=Hamilton House
TTITLE4=Reel of the 51st Division
TTITLE5=Machine Without Horses
TTITLE6=Duke and Duchess of Edinburgh
TTITLE7=Inverness Country Dance
TTITLE8=Mairi's Wedding
TTITLE9=Duke of Perth
EXTD=
EXTT0=
EXTT1=
EXTT2=
EXTT3=
EXTT4=
EXTT5=
EXTT6=
EXTT7=
EXTT8=
EXTT9=
PLAYORDER=
